<svg id="Layer_1" data-name="Layer 1" xmlns="http://www.w3.org/2000/svg" viewBox="0 0 250.21 55.83"><defs><style>.cls-1{fill:#111828;}.cls-2{fill:#121728;}.cls-3{fill:#131728;}</style></defs><path class="cls-1" d="M249.33,40.24l1.35-.4-4.5-2.57-.5,3a18.67,18.67,0,0,0,5.59,5.1,77.43,77.43,0,0,0,7.66,3.92,3.15,3.15,0,0,1,1.4,1.44s.36.58-1,1.57l-4.83,3.29-6.57,3.92s-5.37,3.2-7.62,1.85,0-6.53,0-6.53l1.13-2.39a.57.57,0,0,0-.72.34s-2.5,4.39-2.82,7.88,2.14,5.36,5.63,4a46.34,46.34,0,0,0,8.29-4.08l6.63-4.12s3.29-1.89,3.24-5.45a4.7,4.7,0,0,0-2-4.58s-4-2.09-6.1-3.08C253.64,43.31,250.44,41.84,249.33,40.24Z" transform="translate(-14.73 -13.02)"/><path class="cls-1" d="M260.35,63.77s-.65-.93.14-3.56a9.71,9.71,0,0,1,.72-1.73,32.26,32.26,0,0,1,2.2-3.58s-.27-.2-1.07.89a19.22,19.22,0,0,0-3.56,5.78c-1.23,3.31-.19,5.95,1.42,6.59a2.51,2.51,0,0,0,3.09-.54,10,10,0,0,0,1.18-4.26s-.25-.27-.45.27c0,0-.68,1.69-2.13,1.34C261.89,65,260.65,64.47,260.35,63.77Z" transform="translate(-14.73 -13.02)"/><polygon class="cls-1" points="216.83 42 219.13 37.74 222.57 40.31 220.14 44.43 216.83 42"/><polygon class="cls-1" points="150.71 51.11 152.85 48.17 155.59 50.52 153.38 53.6 150.71 51.11"/><polygon class="cls-1" points="82.87 53 85.02 50.06 87.76 52.42 85.54 55.49 82.87 53"/><polygon class="cls-1" points="78.46 53 80.6 50.06 83.35 52.42 81.13 55.49 78.46 53"/><polygon class="cls-1" points="7.92 53 10.06 50.06 12.8 52.42 10.59 55.49 7.92 53"/><polygon class="cls-1" points="50.38 24.36 52.33 21.69 54.82 23.83 52.81 26.62 50.38 24.36"/><polygon class="cls-1" points="3.5 53 5.65 50.06 8.39 52.42 6.17 55.49 3.5 53"/><path class="cls-1" d="M223.21,33.23a13,13,0,0,0-4.43-3.18,3.42,3.42,0,0,0-4,3.18c-.34,2.87.91,3.78.91,3.78,1.19.81,2,3.35,2,3.35l.34.17.27-1.49,5-2.47.68-3Zm-6.18,3-1.22-2.06s.07-.71,1.22-.64a5.53,5.53,0,0,1,3.58,1.35S217.63,35.86,217,36.2Z" transform="translate(-14.73 -13.02)"/><path class="cls-1" d="M217,36.37a52.1,52.1,0,0,0-6.59,3.38c-1.55,1.18-6.22,3-7.3,8.55a8.84,8.84,0,0,0,3.6.45l9.58-.13,2.18-.15s-7.11,1.94-9.26,4.24c0,0-1.42,1-1.48,4.59,0,0-3.28-1.74-4.26-4.85a24.37,24.37,0,0,1-2-6.45s1-2.81-1.53-9.8c0,0-2.61-6.32-4.06-8.08,0,0-1.08,3.61-.85,4.46,0,0,2.34,5.5,2.79,6.76a81.89,81.89,0,0,1,2.21,8s.54,0-.54,1.62c0,0-5.14,7.25-10.95,9.28,0,0-7.41,3-7.64-2.73a6.26,6.26,0,0,1,.14-1.5,29.28,29.28,0,0,1,1.15-4.37s.27-1.27-.21-1a23,23,0,0,0-2.27,7.21s-1,4,1.85,6a4.76,4.76,0,0,0,2,.72,10.74,10.74,0,0,0,7.35-2s8.07-5.25,9.57-10.61c0,0,1.13,6.37,4.53,9.42,0,0,2.28,3.08,10.14,3.85l1-3.36s-6-1.48-6.72-4c0,0-.31-.63,3.38-2.19,0,0,9.74-3.76,15.82-4.46a4.09,4.09,0,0,0,1.33-.43s1.21-3,1.1-3.63l-17.37.43-6.64,0s.47-.86,5.83-3.83l4.21-2,.59-.18Z" transform="translate(-14.73 -13.02)"/><path class="cls-1" d="M186.79,42.23s-7.61-1.85-12.66,2.11c0,0,.47,4.39,6.59,7.29,0,0,8.73-2.69,11.16-4.4l-.85,3a42.36,42.36,0,0,1-8.43,3.92c-4.32,1.35-13.92,5.52-14.24.56,0,0-2.43,3.31-5.83,3.63s-6.47-4.44-6.76-6.29c0,0-1.17,5.14-11.06,10.27,0,0-4.51,2.71-7.26,1s-3-3.76-2.88-6.46c0,0,1-4.26,2.91-6.56,0,0,.22,0-.09,1s-2.39,6-.7,7.57c0,0,2.07,2.86,6.51.77,0,0,6.24-3.05,9.75-6.75a14.85,14.85,0,0,0,2.32-2.69,25.34,25.34,0,0,0-2.47-8.54L149.57,35l.93-3.79s.56,0,1.44,1.22c0,0,4.21,7.08,4.78,10.25a11,11,0,0,1,.22,5.59s.88,5.27,4.62,6.19c0,0,4.12,1.72,8.06-4.25l.12.11s-.61,2.52,1.24,3.09c0,0,1.53.4,5.34-.52,0,0-5.16-3.88-3.41-8.79,0,0,.27-3.31,7-5.09C179.88,39.05,184.34,40.18,186.79,42.23Z" transform="translate(-14.73 -13.02)"/><path class="cls-1" d="M148,52.66s.61-2.48-.4-7L143.49,26.5l-1.77-9.8-.29-.4.84-2.78s.44-.74,1,.21l3.61,7.36-2.12-1.31s1.48,10.07,2.87,15.47,2.9,13.32,1,17.41C148.66,52.66,148.27,53.25,148,52.66Z" transform="translate(-14.73 -13.02)"/><path class="cls-1" d="M92.34,55.49S93,53,92,48.23l-3.51-19.7-1.67-9.78a.92.92,0,0,0-.27-.49L86.24,18l.88-2.84s.45-.76,1,.22L91.66,23l-1.85-1.21S91.27,32,92.4,37.52s2.59,13.79.65,18C93.05,55.5,92.66,56.1,92.34,55.49Z" transform="translate(-14.73 -13.02)"/><path class="cls-1" d="M131,20.25l2,1.59a48.3,48.3,0,0,1-2.5-5.65,18.88,18.88,0,0,0-1.28-2.4l-1.59,3a2,2,0,0,1,.71,1.18c.13.78,1.55,8.49,1.55,8.49s2.57,12,2.13,14.73c0,0-.94,2.5-5.17,2.54l-3.78.47L122,47.39a26.47,26.47,0,0,1,5.92.94l4,.74S120.34,55,116.46,48.2L116,47.11l-1.15,1v1.42s-.2,4.09,5.34,5.27c0,0,3.89,1,11.59-2.6,0,0,6.83-2.5,12.51-1.39l1.89-3-12.57-1.79-3.28-.61a6.78,6.78,0,0,0,2.6-3.41,15.68,15.68,0,0,0,.27-8.48Z" transform="translate(-14.73 -13.02)"/><path class="cls-1" d="M122.31,26.55s4-8,3.81-9.11c0,0,.1-2.09-2.8-1.21,0,0-11.53,4-15.95,7.06L103,25.79s-1.36.78.33,1.08l.48.34-.27.85s7.47,6,10.1,7.46c0,0,6.73,3.38,5.68,6.76l-1.22,3.85a12.64,12.64,0,0,1-5.24,4.26c-3.68,1.73-7.5,2.17-9.29-.67a13.24,13.24,0,0,1-1.09-2.61s-.6-1-1.17-.54a12.25,12.25,0,0,0-2.57,2.67s-.17,2.13,2.3,4.26l.37,1.66-2,.57-.71-.44A6.49,6.49,0,0,1,97.53,51l.75-3.48a6,6,0,0,1,2.7-3.55c2.3-1.49,2.8,1.28,2.8,1.28s1.63,4.26,5.17,3.42,7.79-2.65,9.13-4.7c0,0,.71-.78-.78-2.27,0,0-1-1.48-4.49-3,0,0-10.21-6.42-12.27-9.9a4.82,4.82,0,0,1,.27-3.24s.44-1.86,3.28-3.25a143.42,143.42,0,0,1,13-6.59s6.3-2.94,9-2.6c0,0,2.22,0,1.14,3.18,0,0-1.66,4.56-3,7.36C124.23,23.59,122.66,26.79,122.31,26.55Z" transform="translate(-14.73 -13.02)"/><path class="cls-1" d="M81.21,53.7s-6.32,5.51-5.41,8.72c0,0,.48,5.11,7.37,2.06,0,0,1.79-.37,5.51-3.88,0,0,5.37-5,11.89-5.72l-.2-1.41.2-.41a22.94,22.94,0,0,0,5.61,3s.48.23,0,2.16l-.4,1.72s-5.44-2.94-8.59-1.15c0,0-5.23,2.23-7.19,4.13s-8.86,8.41-13.76,5c0,0-4.76-3.34.41-10.13C76.65,57.73,79.82,53.5,81.21,53.7Z" transform="translate(-14.73 -13.02)"/><path class="cls-1" d="M69.55,62.93s14-6.49,15.82-11.35a23,23,0,0,0-.27-9.06c-1.19-4.29-2.61-15-2.61-15s-.91-6.72-.87-7.91c0,0-.38-.91-.78-1,0,0,.54-2.77,1.32-3.41h.16l3.38,7.3s-1.31-1-1.62-.88l1.08,7.9,1.69,12s1,6.72-.77,11.05c0,0-2.2,7.43-9,9.12C77.05,61.61,70.8,63.07,69.55,62.93Z" transform="translate(-14.73 -13.02)"/><path class="cls-1" d="M60.73,21.94s0-3.25.68-3.41c0,0,4.22,2.77,5.67,4.9,0,0,.31.6-1.38.4l.1.44,8.85,9.53s6.9,6.86,8.18,11.52.71,6.36.71,6.36S82.26,46,80.13,43.8l-11-12.13s-7.24-7.7-7.77-9.33Z" transform="translate(-14.73 -13.02)"/><path class="cls-1" d="M70.72,44.07l.45.5s-.09,1.44,2.21,4.64c0,0,1.8,3.51,1.67,4.15,0,0,0,1.8-7.71,5.72,0,0-10.7,6.17-15.07,7.75l-7.73,1.69s9.15-.07,12.71-1.15a60.48,60.48,0,0,0,14-7.3s4.55-3,5-6.35L76.49,51A27.76,27.76,0,0,0,73.7,44.7l1.44.09a10.69,10.69,0,0,0-3.47-4Z" transform="translate(-14.73 -13.02)"/><path class="cls-1" d="M71.34,48.7c-1-2.23-7.26-5-7.26-5,1.11-.17,1.92-.23,1.92-.23l-5.48-3.25-.88,3.38.88.61a15.46,15.46,0,0,0-3.44,6.86c.37,2.9,4.7,3.72,8,4.56s4.57-1,4.57-1l1.14-2C71.81,49.92,71.34,48.7,71.34,48.7Zm-8.23,1.49-1.3,1s-2.72-1-2.74-2c0,0-.57-1,1.09-2.5,0,0,.84-1.22,2.19.24a3.62,3.62,0,0,1,1,2.75A.65.65,0,0,1,63.11,50.19Zm6,2c-1.25.84-5.27-.37-5.27-.37.84-.92,1-4.23,1-4.23,4.07,1.35,5,3.28,5,3.28C70.36,51.64,69.08,52.22,69.08,52.22Z" transform="translate(-14.73 -13.02)"/><path class="cls-1" d="M39.81,51.68s-7,8.68-4.12,12.74c0,0,1.76,2.5,5-.24A26.36,26.36,0,0,0,45,60.53c2.37-2.43,5.61-5.05,8-5.9a26.35,26.35,0,0,1,5.61-2c3-.65,2.16.71,2.16.71l.45.88S56.1,56.14,53,57.56s-7.64,5.88-7.64,5.88-3.75,4.29-6.59,4.66-5.31-.84-5.44-4.6S36.5,54.25,39.81,51.68Z" transform="translate(-14.73 -13.02)"/><path class="cls-1" d="M48,39s.25-3-2.86-1.86-6.94,6.31-6.67,7.39.95,1.49,4.55,2.34c0,0,6,.9,5.32,3.88a5.93,5.93,0,0,1-2.39,4.68,47.74,47.74,0,0,1-16.58,7.8s-9.19,2.39-12.57-6.67c0,0-1.58-5.72,3.92-16.13,0,0-4.19,9.91-2,14.87,0,0,3.83,8.29,15.32,3.47,0,0,10.36-4,12.34-6.29,0,0,.54-1-1.58-1.64,0,0-2.11-.5-4.64-1a4.43,4.43,0,0,1-3.06-6.09,17.74,17.74,0,0,1,6.49-8.94s4.73-3.1,5.49.24C49.09,35.1,49.32,38.79,48,39Z" transform="translate(-14.73 -13.02)"/><path class="cls-1" d="M259.38,26.82S255,34.48,257,38.62a4.27,4.27,0,0,0,3.11,2.25s2.9.61,3.87-3.6c0,0,.95-2.24.34-2.41,0,0-.45,0-.83,1.73a3,3,0,0,1-3.11,1.06c-1.9-.58-3.32-2.84-2.28-6s1.49-4.84,1.49-4.84S259.48,26.64,259.38,26.82Z" transform="translate(-14.73 -13.02)"/><path class="cls-1" d="M253.41,20.17a1.68,1.68,0,0,1,.27-1.26l.83-.9a6.81,6.81,0,0,1,3.92,3.87,11.34,11.34,0,0,1,1.33,3.61,5.23,5.23,0,0,0,.57-2.53c-.05-2,1.08-4.72,1.75-5.16a2.09,2.09,0,0,1,2.39-.63.68.68,0,0,1,.38.93c-.31.63-.74.85-1.26.56s-1.51-.2-2,1.33-.34,5.05-1.9,7l-.7-.23c-.06,0-1-4.86-3.67-6.25l-.47.92S253.42,20.7,253.41,20.17Z" transform="translate(-14.73 -13.02)"/><path class="cls-1" d="M249.11,31.37a28.49,28.49,0,0,1,2.39-5.77s0-.59-.73.88a23,23,0,0,0-2,4,6.49,6.49,0,0,0-.38,2.83,2.93,2.93,0,0,0,2.39,2.23s1.6.28,2.45-2.54c.05-.11.48-1.6.48-1.6s-.22-.34-.48.43c0,0-.35,1.52-2.41,1.2A1.85,1.85,0,0,1,249.11,31.37Z" transform="translate(-14.73 -13.02)"/><path class="cls-1" d="M236.51,24.77l1.72,1.75s.42-.13.65-1.35c0,0,3,3.13,3.67,6,0,0,.47.7,1.06-.7a14.36,14.36,0,0,0,1.35-3.4l.81-3s.27-.83,1.58-.63c0,0,1.53.34,1.76-.47,0,0,.79-1.42-1-1.47,0,0-2.12-.29-3,2.37,0,0-1.13,4.75-1.83,5.7,0,0-2-6-5.51-6.94A3.47,3.47,0,0,0,236.51,24.77Z" transform="translate(-14.73 -13.02)"/><path class="cls-1" d="M226.08,19.15l.5-1.07a10.55,10.55,0,0,1,3.51,5.42s1,.63,1.13-1.86a48.16,48.16,0,0,1,1-5.2s.34-1.58,2-.51a3.36,3.36,0,0,1,1.19,1.3,2.15,2.15,0,0,0,1-2.09s-1.52-2.43-3.62-1.41c0,0-2.19,3.63-2,6.57,0,0-2.26-4.82-5.82-5.1,0,0-1.24,2.2-1,2.6S225.06,19.21,226.08,19.15Z" transform="translate(-14.73 -13.02)"/><path class="cls-1" d="M228.7,28.66s-2.75,6-1.63,8a1.77,1.77,0,0,0,2.39,1.18,5.32,5.32,0,0,0,2-2.39l.29-.2a14.77,14.77,0,0,1-1.56,4.65c-1.06,1.6-3.27,1.86-4.27.28s-.78-3.21-.24-5.08a53.83,53.83,0,0,1,2.64-6S228.44,28.66,228.7,28.66Z" transform="translate(-14.73 -13.02)"/><path class="cls-1" d="M200.35,63.49s1.94.41,3.88-2.3c0,0,.63-.2.2.77,0,0-.7,5.5-3.85,5.79a4.2,4.2,0,0,1-3.45-3.67c-.27-3.15,2.68-9.89,3-10.27h.27s-1.82,5.45-1.73,7S199.27,63.13,200.35,63.49Z" transform="translate(-14.73 -13.02)"/><path class="cls-1" d="M236.39,40.9a2.1,2.1,0,0,1,2.21-.76,2,2,0,0,1,1.31,1.1,3.84,3.84,0,0,1-.17,3.54A11.6,11.6,0,0,1,237.57,48s-.17.78.51.31A18.63,18.63,0,0,0,241.46,43c.81-2.32.83-3.55-.44-4.76a2.07,2.07,0,0,0-1.78-.56,3.55,3.55,0,0,0-2.73,2.07S235.71,41.18,236.39,40.9Z" transform="translate(-14.73 -13.02)"/><path class="cls-1" d="M242,18.69a2.82,2.82,0,0,1,.41-3.28l1.42-1.89s-.3-.51-1.57,1.22-2.56,4-.8,6a1.79,1.79,0,0,0,3.08-.2,5.74,5.74,0,0,0,.94-2.36s-.64-.31-1.08,1.14C244.35,19.3,243.78,20.68,242,18.69Z" transform="translate(-14.73 -13.02)"/><path class="cls-1" d="M220.11,62.14l.48-1s2.72,2.69,3.24,5.41c0,0,.35.58.59.16a10.63,10.63,0,0,0,1.08-3.62s.21-3.56,1.29-4.38,2.59.1,2.4.69l.27.15s.95-2,.18-2.72a2.29,2.29,0,0,0-3.19.85c-1.3,2-1.88,6.92-1.88,6.92s-2.13-6.45-5.57-6.79a13.82,13.82,0,0,0-.79,2.25Z" transform="translate(-14.73 -13.02)"/><path class="cls-2" d="M220.64,23.77l.2-.68c.44-1.08.78-3-.24-3.31S219.05,22,219.05,22a2.3,2.3,0,0,0,.3,2.49l-.17.51L217,27.18l-2.8,2.37c-.57.64,0,.68,0,.68l2.16-1.29a10,10,0,0,0,3.52-3.68c.67-.07,1.38,1.48,1.38,1.48l.41-1C221.92,24.75,220.64,23.77,220.64,23.77Zm-.31-.64-.06.29-.12-.11a1.41,1.41,0,0,1-.2-1.8S220.83,21.28,220.33,23.13Z" transform="translate(-14.73 -13.02)"/><path class="cls-1" d="M202,38.08s-.32-2.16,1.48-6.26c0,0,.75-2.1,1.17-2.08s-.69,2.71-.69,2.71-1.37,3.58-.6,4.62a2.19,2.19,0,0,0,2.15.83s.65-.07.95-1.06.72-.38.72-.38-.25,2.79-1.44,3.72S202.2,40.27,202,38.08Z" transform="translate(-14.73 -13.02)"/><path class="cls-1" d="M205.74,27.88s-.81-1.13-.18-1.74c0,0,.49-.7.83,0a16.94,16.94,0,0,1,.66,2.95,1,1,0,0,0,1.39.65,1.14,1.14,0,0,0,.52-1.32,5.34,5.34,0,0,0-.5-1.65l.52-1.49s.41,0,.93,1.38.6,2.39,1.51,2.57c0,0,.72,0,.6-.34s-1.14-2.1-1-2.59.25-1.82.81-1.79l.4.12-.15.47-.14,0s-.27.2.72,1.74-.85,3.83-.85,3.83-1.65.85-2.3-1.29c0,0-.41,1.78-1.69,2.19s-1.47-1.31-1.56-2A6.45,6.45,0,0,0,205.74,27.88Z" transform="translate(-14.73 -13.02)"/><path class="cls-1" d="M189.22,29.08l.84-1.45,12.17-4.17,12.47-4.65L213.93,20S206.11,24,189.22,29.08Z" transform="translate(-14.73 -13.02)"/><path class="cls-1" d="M114.83,33.89l.81-1.41,11.75-4,12-4.51-.74,1.11S131.15,28.92,114.83,33.89Z" transform="translate(-14.73 -13.02)"/><path class="cls-1" d="M182,29.74a1.89,1.89,0,0,0,1.21,1.31s-.25,1.72-1.1,1.4a1.79,1.79,0,0,1-.84-2.43,4.85,4.85,0,0,1,1.25-2.12,18.75,18.75,0,0,1,5-2.21c1.25-.32,7.81-2.65,8.89-3.09s10.25-3.8,10.25-3.8,2.39-1,2.44-1.31a6.41,6.41,0,0,1-1,1.68s-7.45,3.24-12.82,5.08-10.9,3.57-12,4.26S182.18,29.15,182,29.74Z" transform="translate(-14.73 -13.02)"/><path class="cls-1" d="M55.49,35.6l.68-1.43,4.27-1.92,6.31-2.39,9.9-3.79-.48,1s-3.48,1.56-9.53,3.9l-5.23,2C59.66,33.7,57.29,34.69,55.49,35.6Z" transform="translate(-14.73 -13.02)"/><path class="cls-1" d="M53,33.79a1.49,1.49,0,0,0,1,1s-.2,1.35-.86,1.1A1.4,1.4,0,0,1,52.43,34a3.82,3.82,0,0,1,1-1.66,14.78,14.78,0,0,1,3.93-1.75c1-.25,6.14-2.08,7-2.43s8.07-3,8.07-3,1.88-.78,1.92-1a5,5,0,0,1-.75,1.31s-5.86,2.56-10.09,4-8.57,2.81-9.44,3.35S53.14,33.33,53,33.79Z" transform="translate(-14.73 -13.02)"/><path class="cls-2" d="M194.33,19s-1-1,.3-3l1-1.69s.38-1,0-1a14.65,14.65,0,0,0-2.46,4.59c-.81,2.64.27,4,1.49,4.4a2.2,2.2,0,0,0,2-.58,1.89,1.89,0,0,0,.52-.7,12.53,12.53,0,0,0,1-2.73s-.11-.25-.79.7S195.46,20.2,194.33,19Z" transform="translate(-14.73 -13.02)"/><path class="cls-2" d="M182.86,19.62s.78-.68.74-1.22c0,0,2.3,2.74,2.71,4.63,0,0,.6.51.77,0s1.22-5.17,1.52-6.07,1.12-1.57,2.07-.52l.16.2.61-1.48a1.61,1.61,0,0,0-2.5-.34c-1.35,1.28-2,6.45-2,6.45a19.39,19.39,0,0,0-2.87-4.8s-1.25-1.14-1.93-.23a3.35,3.35,0,0,0-.71,1.62Z" transform="translate(-14.73 -13.02)"/><path class="cls-2" d="M152.72,64.72s.76-.66.73-1.19c0,0,2.24,2.67,2.64,4.52,0,0,.59.49.76,0s1.18-5,1.48-5.92,1.09-1.54,2-.51l.17.19.59-1.45a1.58,1.58,0,0,0-2.44-.33c-1.32,1.26-1.91,6.3-1.91,6.3a18.64,18.64,0,0,0-2.81-4.68s-1.22-1.12-1.88-.23a3.3,3.3,0,0,0-.69,1.58Z" transform="translate(-14.73 -13.02)"/><path class="cls-2" d="M123.52,63.66s.88-.76.84-1.36c0,0,2.58,3.07,3,5.2,0,0,.68.57.87,0s1.37-5.82,1.71-6.82,1.25-1.76,2.32-.59l.19.23.68-1.67s-1.29-1.82-2.81-.38-2.2,7.25-2.2,7.25a21.72,21.72,0,0,0-3.23-5.39s-1.41-1.29-2.17-.27a3.74,3.74,0,0,0-.8,1.83Z" transform="translate(-14.73 -13.02)"/><path class="cls-2" d="M16.25,23.41s.85-.72.82-1.3c0,0,2.52,2.94,3,5,0,0,.67.55.86,0s1.33-5.56,1.67-6.52,1.22-1.69,2.26-.56l.19.22.67-1.6a1.8,1.8,0,0,0-2.75-.37c-1.48,1.38-2.15,6.94-2.15,6.94A20.58,20.58,0,0,0,17.62,20s-1.37-1.23-2.11-.25a3.4,3.4,0,0,0-.78,1.74Z" transform="translate(-14.73 -13.02)"/><path class="cls-2" d="M34.56,27.26s.68-.52.69-1a12.63,12.63,0,0,1,2,4s.47.46.64.05,1.3-4.23,1.6-4.95,1-1.24,1.73-.32l.13.18.59-1.2s-.85-1.42-2-.43-2,5.25-2,5.25a16.28,16.28,0,0,0-2.09-4.15s-1-1-1.58-.31a2.77,2.77,0,0,0-.68,1.31Z" transform="translate(-14.73 -13.02)"/><path class="cls-2" d="M49.25,45.47s.72-.51.72-1c0,0,1.85,2.41,2.09,4,0,0,.5.46.68,0s1.36-4.23,1.68-5,1.07-1.24,1.83-.31l.14.18.62-1.2a1.46,1.46,0,0,0-2.17-.43c-1.26,1-2.09,5.24-2.09,5.24a15.52,15.52,0,0,0-2.23-4.16s-1-1-1.67-.32a2.68,2.68,0,0,0-.71,1.31Z" transform="translate(-14.73 -13.02)"/><path class="cls-2" d="M121.11,36.88s.67-.58.64-1a12.63,12.63,0,0,1,2.31,4s.53.44.67,0,1-4.43,1.3-5.19,1-1.35,1.77-.45l.14.17.52-1.27a1.38,1.38,0,0,0-2.14-.29c-1.16,1.1-1.68,5.53-1.68,5.53a16.45,16.45,0,0,0-2.46-4.11s-1.07-1-1.65-.2a2.82,2.82,0,0,0-.61,1.39Z" transform="translate(-14.73 -13.02)"/><path class="cls-2" d="M158.31,20s.82-.71.79-1.28c0,0,2.42,2.88,2.84,4.88,0,0,.64.53.82,0s1.28-5.45,1.6-6.39,1.18-1.66,2.17-.55l.18.21.64-1.57a1.7,1.7,0,0,0-2.63-.35c-1.42,1.35-2.06,6.8-2.06,6.8a20.16,20.16,0,0,0-3-5.06s-1.32-1.21-2-.25a3.51,3.51,0,0,0-.75,1.71Z" transform="translate(-14.73 -13.02)"/><path class="cls-2" d="M115.54,63.32s.47-1.09,1-1.19c0,0,2.67-.19,4.12-.45l-.2.82s-3.38,1.46-3.41,2.88c0,0-.09,1.13,2.43.76l2.13-.37-.15.33s-3,1.9-4.83,1.36,0-3,0-3a8,8,0,0,1,1.14-1.2l-2.24.16Z" transform="translate(-14.73 -13.02)"/><path class="cls-1" d="M21.39,39.56s.69-1.42,1-1.19.23.38-.25,1.6c0,0-1.17,3.94-3.67,4.12s-2.93-3.22-2.9-4.64a22.83,22.83,0,0,1,2-7.17s1.46-4.52,2.25-5.15c0,0,.63-.27.16,1.24S17.41,35.3,17.3,36.7s.06,3.54,1.73,4C19,40.69,20.8,40.78,21.39,39.56Z" transform="translate(-14.73 -13.02)"/><path class="cls-1" d="M23,50.46a2.64,2.64,0,0,1,1.15-1.91s3.41.22,4.66,4.85a33.49,33.49,0,0,1,1.39-4.68c.64-1.4,1.65-2.69,3.54-.93,0,0-.06,1.69-.6,1.59,0,0-1.37-1.1-2.17-.2s-1.77,6.45-2.13,7l-.67-.2S28,52.39,25.78,51c0,0-.14,1.47-.88,1Z" transform="translate(-14.73 -13.02)"/><path class="cls-2" d="M24.85,36.23s-.81.61-.36-.45a9.27,9.27,0,0,1,3.63-4.07A1.94,1.94,0,0,1,31.23,33c0,.77.13,4.56-4.89,9.58l-2.95,3.13s-.61-.12.45-1.37c0,0,6-6.3,5-9.38C28.8,35,28,32.8,24.85,36.23Z" transform="translate(-14.73 -13.02)"/><path class="cls-2" d="M28.22,18.32s.51-.77.74-.44c0,0,.31.68-.74,2.06,0,0-2.7,5.38-.3,5.95a2.5,2.5,0,0,0,2.5-1.52s.54-.23,0,1.15c0,0-.81,4.26-3.5,2.94s-.19-7.2-.19-7.2S27.61,19.37,28.22,18.32Z" transform="translate(-14.73 -13.02)"/><path class="cls-2" d="M36.3,32.25s-1.93,4-1.32,6.28,2.1,1.35,2.1,1.35.43-.26.5-1.35.54-.44.54-.44.81,3.35-2.13,3.65-2-5.34-1.48-6.32S35.62,32,36.3,32.25Z" transform="translate(-14.73 -13.02)"/><path class="cls-2" d="M41.61,14.42s.74-1.49.16-1.11-1.25,2.4-1.25,2.4-2,3.78.44,5.23S44,18.38,44,18.38s.07-.61-.29-.26L43,19.57a2.14,2.14,0,0,1-2.34-2.07A13.28,13.28,0,0,1,41.61,14.42Z" transform="translate(-14.73 -13.02)"/><path class="cls-1" d="M47.86,65.3l.56-1a.71.71,0,0,1,.32-.32c.84-.43,4-2,6.68-3.07a17.19,17.19,0,0,0,1.7-.75l3.92-2a7.33,7.33,0,0,0,.67-.39,7.73,7.73,0,0,0,1.44-1.15h0a.78.78,0,0,1,.09.91,1.8,1.8,0,0,1-.68.66,60.35,60.35,0,0,1-7.41,4c-3.51,1.5-7.29,3.23-7.29,3.23Z" transform="translate(-14.73 -13.02)"/><path class="cls-1" d="M106.93,63.09v1.06s10.92-3.45,13-4.73l2-1,.34-1S110.64,62.06,106.93,63.09Z" transform="translate(-14.73 -13.02)"/><path class="cls-1" d="M109.16,56l-.68-.95s0-1.49,1-1.89c0,0,2.78,1.08,3,3.71h.15s.27-3.54,1.69-3.85c0,0,1.83-.23,1.83,1,0,0-.48,1-1.36.44s-1.08,1-1.11,1.69a20.57,20.57,0,0,1-1,3.18s-.61.57-.77-.24a6.57,6.57,0,0,0-1.9-3.72S109.72,56.83,109.16,56Z" transform="translate(-14.73 -13.02)"/><path class="cls-2" d="M46.66,21.59s1-2.66,2.12-1.71a10.26,10.26,0,0,1,2.76,4.05s-.17-2.65.47-3.55c0,0,.61-2.07,1.59-2.07,0,0,1.62.06,1.54,1.45l-.56,1s-.88-1-1.35-.76-.86.32-1,2.18a17.9,17.9,0,0,1-.73,4.42c-.17.21-.6.09-.64-.64a7.9,7.9,0,0,0-2.32-4.14A5.25,5.25,0,0,1,48,23.16Z" transform="translate(-14.73 -13.02)"/><path class="cls-2" d="M54.64,27l-.3.5s-.58,0-.4-.5a15,15,0,0,1,1-2.5c.24-.22.4-.95,2.38-1s2.87-.09,3.07.43a5.23,5.23,0,0,1-.45,3.18c-.56,1.26-1.71,3.15-2.95,3.06,0,0-1.6-.44-2.23-.1s-1.6.36-.9,0a41.13,41.13,0,0,1,4.66-2.72s1-.67-.63-.81A20.26,20.26,0,0,0,54.64,27Z" transform="translate(-14.73 -13.02)"/><path class="cls-1" d="M68.27,17.07s-.27-1.25-1-1.52c0,0,.71-2.23,1.72-1.49a9.44,9.44,0,0,1,2.33,5.12,10.17,10.17,0,0,0,1-3.34s.46-1.93,2.08-2.15l1.28.43-.77,1.38s-1.29-.89-1.93-.1a31.68,31.68,0,0,1-1.2,3.94c-.34.5-1.08,2-1.08,2s-.2,0-.22-.59a10.81,10.81,0,0,0-1.4-4.11S68.71,17.71,68.27,17.07Z" transform="translate(-14.73 -13.02)"/><path class="cls-2" d="M77,21.36s1.25-1.18,1.75,0,.17,2.44-.88,4.5A14.34,14.34,0,0,1,75.8,29s-.61.74,0,.58,3.08-3.38,3.55-4.74,2.7-5.06,0-5.74a3.24,3.24,0,0,0-2.5,1.62S76.48,21.36,77,21.36Z" transform="translate(-14.73 -13.02)"/><path class="cls-1" d="M76.65,33.5s.34-.11.44-.85c0,0,.87.82,1,3.3,0,0,.17,1.26.78.28a13.05,13.05,0,0,0,.84-2.6S79.55,31,80.94,31c0,0,.91,0,1.08.54l.64-1.25s-1.18-1.72-2.7.13a7.07,7.07,0,0,0-1,3.93s-.51-2.69-1.57-3.79c0,0-1.44-1.2-2,1.23Z" transform="translate(-14.73 -13.02)"/><path class="cls-1" d="M94.23,32s.31-.12.34-.83c0,0,.89.7,1.24,3,0,0,.28,1.18.76.2a12.72,12.72,0,0,0,.56-2.52s-.39-2.43.92-2.56c0,0,.85-.08,1.06.41l.49-1.23s-1.26-1.51-2.53.37a6.68,6.68,0,0,0-.57,3.78,9,9,0,0,0-1.81-3.43s-1.46-1-1.8,1.34Z" transform="translate(-14.73 -13.02)"/><path class="cls-1" d="M95,35.6s.43-1.12,1.08-.67l.59.38s-1.91,1.17-2,1.87-.59,1.08-.38,1.58.27.92.76,2a14,14,0,0,1,1,3.56A35.85,35.85,0,0,0,96,48.42c.18.52.49-.67.49-.67l.41-3.5a8.71,8.71,0,0,0-.63-3.85l-1-2.61a.8.8,0,0,1,.61-.77L97.48,36s.52.42.77.1l.52-1.23S96.5,32.49,95.59,34,95,35.6,95,35.6Z" transform="translate(-14.73 -13.02)"/><path class="cls-1" d="M94.86,22.58a2.78,2.78,0,0,1,0-2.8L96,17.14l.45-1.42s-.54-.1-1,.81-3.8,6.22-.73,8.11c0,0,1.89.76,3.08-1.8,0,0,.35-1.37.4-1.68s-.36-.31-.44.37S95.74,23.7,94.86,22.58Z" transform="translate(-14.73 -13.02)"/><path class="cls-1" d="M98.92,39a10.61,10.61,0,0,1,1.3-3.38,2.31,2.31,0,0,1,1.77-.72c1.26,0,3.39.08,3.61.83S105,39,105,39a3.36,3.36,0,0,1-1.1,1.81,59.52,59.52,0,0,1-6,2.41s-.24-.27.57-.63a35.3,35.3,0,0,0,3.26-2.17,9,9,0,0,0,2.58-1.87,6.27,6.27,0,0,0-3.45-.4s-1.22.06-1.4.44-.24.54-.24.54Z" transform="translate(-14.73 -13.02)"/><path class="cls-2" d="M99.6,17.49a2.87,2.87,0,0,1,.28-1,8.72,8.72,0,0,0,.41-1.13s2.38.84,2.7,5.07a3.94,3.94,0,0,0,.59-1.69c.29-1.39.68-3.13,1.17-3.3a2.6,2.6,0,0,1,1.91.39l-.32,1.39s-1.29-.68-1.63-.34a2.41,2.41,0,0,0-.54,1.22c-.1.44-.81,3.44-1.3,3.93s-.49-.87-.49-.87-.46-2.54-1.37-3.13c0,0-.25,1-.66.56A6.81,6.81,0,0,1,99.6,17.49Z" transform="translate(-14.73 -13.02)"/><path class="cls-3" d="M111.52,25.67a5.48,5.48,0,0,1,.61-.92c.25-.25.43-.28,1,.33,0,0,.42-.36.24-1.58s-1.14-.22-1.14-.22-1.76,2.54-1.85,3.74.76,1.24.76,1.24a21.55,21.55,0,0,0,3.38-.48,4,4,0,0,1,2.84.57s-2.35,1.33-7.21,1.19l-2.79-.49c-.27-.05.72.47,1.51,1a3.06,3.06,0,0,0,2.61.74,12.44,12.44,0,0,0,4.8-.74s2.34-.61,2.34-1.92c0,0,.18-1.24-1.78-1.89,0,0-1.12-.41-4.14.36l-1.22.11S110.91,26.59,111.52,25.67Z" transform="translate(-14.73 -13.02)"/><path class="cls-3" d="M134.34,19.71l.45-.6s2.12,2.12,2.48,4.06c0,0,.81.16,1.31-2.94,0,0,.28-2.65.86-3A1.48,1.48,0,0,1,140.7,17s.7-.88,0-1.49c0,0-1.62-.27-2.17,1,0,0-1,4.21-1,4.68,0,0-1.94-4.57-3.47-5.07a3.44,3.44,0,0,0-.86,2.05A3,3,0,0,0,134.34,19.71Z" transform="translate(-14.73 -13.02)"/><path class="cls-3" d="M138.22,27.88l.64-1.68s1.59,3.27,1.29,5.47-1.63,5.61-.5,6.78a1.28,1.28,0,0,0,2.12-.49s.43-1.77.77-1.56c0,0,.32.24-.17,1.33a3.8,3.8,0,0,0-.28.8c-.15.65-.5,1.88-1.08,2-.8.2-3-.14-2.62-2.87l.88-4A8.39,8.39,0,0,0,138.22,27.88Z" transform="translate(-14.73 -13.02)"/><path class="cls-3" d="M137.27,36.3s.14-.31-.14-.3-1.83,3-2.2,4.86-.68,3.88,1.51,4.35,2.82-3.27,2.82-3.27-.21-.33-.45.14-.56,1.69-1.64,1.53-1.45-1.52-1.42-2a10.54,10.54,0,0,1,.53-2.57C136.68,38,137.24,36.44,137.27,36.3Z" transform="translate(-14.73 -13.02)"/><path class="cls-3" d="M153.46,21.26a2,2,0,0,0-2.26,1.24c-.84,1.62-.61,2.76.36,3.49l.72.58.25.16s-.79,1.75-5.57,4.39a41.8,41.8,0,0,0-4.84,2.28,6.27,6.27,0,0,1-1.76.94s-.72.61.29.37a67.39,67.39,0,0,0,7.84-3,11.1,11.1,0,0,0,4.85-4.28.54.54,0,0,1,.33.46.23.23,0,0,0,.41,0,2.3,2.3,0,0,0-.2-2.14S155.13,22.25,153.46,21.26Zm0,4-1.26-.74s-1.15-.65-.76-1.39c0,0,.81-.78,1.49-.52S153.69,24.56,153.48,25.3Z" transform="translate(-14.73 -13.02)"/><path class="cls-3" d="M139.82,54.12s1.1-1.51,2-1,0,2.37,0,2.37l-1.24,2.18s-.31.61.34.16A11.86,11.86,0,0,0,143,54.5s1.06-2.68-.43-3.13-2.32,1.76-2.32,1.76S139.62,54,139.82,54.12Z" transform="translate(-14.73 -13.02)"/><path class="cls-3" d="M171.77,16.9s1.8-3.38,4-2.88,1,4.46,1,4.46a15,15,0,0,1-6.85,7.75s-.27-.27.55-.81,4.1-4.28,4.59-7.57c.29-1.92-.39-2.29-1-2.27a1.61,1.61,0,0,0-1.11.55C172.62,16.5,172,17.33,171.77,16.9Z" transform="translate(-14.73 -13.02)"/><path class="cls-3" d="M156.5,31.57a18.63,18.63,0,0,1,1.89-2.5c.38-.2.88-.41,3.18-.58s3,.31,3,.85a22,22,0,0,1-1.66,3.31s-2.3,3-4.86,2.6l-1.56.31s-.81-.2.41-.79c0,0,2.16-1.05,3.24-1.69s2.06-1.5,2-1.83c0,0-3.72-.09-4.78.35,0,0-.38.49-.65.41S156.5,31.57,156.5,31.57Z" transform="translate(-14.73 -13.02)"/><path class="cls-3" d="M159.22,42.23s-.07,2.86,1.39,2.86c0,0,1.35.22,1.81-.72a5.5,5.5,0,0,1,.29-1.49c.18-.2.57-.18.5.22a6.2,6.2,0,0,1-1,2.73s-1.38,2.25-3.18.72.25-7,.25-7a12.87,12.87,0,0,1,1.28-3c.63-.81.17.45.17.45A17.49,17.49,0,0,0,159.22,42.23Z" transform="translate(-14.73 -13.02)"/><path class="cls-3" d="M166,41s1.15-3.07,3.11-2.53,1.39,3.19,1.39,3.19-1.49,4.52-3.58,5.4l-1.64,1.41a.37.37,0,0,1-.12-.62c.35-.41,1.57-1.44,1.57-1.44s2-2,2.38-3.9c0,0,.27-1.51-.57-1.81,0,0-1.24-.68-2.33,1.18,0,0-.27.52-.41.49S165.57,41.86,166,41Z" transform="translate(-14.73 -13.02)"/><path class="cls-3" d="M175,33.08s-.66-.92,0-3.18l.9-2.14s.11-.61-.25-.4c0,0-3.33,4.86-1.69,8.36a2.3,2.3,0,0,0,3.58.58,5.88,5.88,0,0,0,1-3s0-.27-.23-.22c0,0-.85,1.28-1.91,1.08A1.87,1.87,0,0,1,175,33.08Z" transform="translate(-14.73 -13.02)"/><path class="cls-3" d="M184.85,35.27a2.06,2.06,0,0,1,1.05-.79l1.56-.24a3.13,3.13,0,0,1,1.39.12l.13,0s-.17.74-3,2.36c0,0-3,2.1-1.73,2.1,0,0,1.42-1.08,1.79-1a2.16,2.16,0,0,0,2.06-.47A12.87,12.87,0,0,0,190.43,34c.3-.81,1.39-2.49-.27-2.72,0,0-3.45,0-4,.76S183.84,34.92,184.85,35.27Z" transform="translate(-14.73 -13.02)"/><path class="cls-1" d="M189.45,43.06l.38-.59a7.31,7.31,0,0,1,2.59,3.65c.61,2.26,1.15.18,1.15.18l.43-2.65s.2-2.69.61-3.1,1.49.12,1.67.3c0,0,.72.18.85-.79,0,0,.25-1-1.21-1.19,0,0-1.65-.41-1.87.74a14.65,14.65,0,0,0-.88,4.73,14.38,14.38,0,0,0-2.23-3.22,5.45,5.45,0,0,0-2.37-1.37s-1.19,2-.09,2.72Z" transform="translate(-14.73 -13.02)"/></svg>