<?xml version="1.0" encoding="UTF-8" standalone="no"?>
<!-- Created with Inkscape (http://www.inkscape.org/) -->

<svg
   xmlns:dc="http://purl.org/dc/elements/1.1/"
   xmlns:cc="http://creativecommons.org/ns#"
   xmlns:rdf="http://www.w3.org/1999/02/22-rdf-syntax-ns#"
   xmlns:svg="http://www.w3.org/2000/svg"
   xmlns="http://www.w3.org/2000/svg"
   xmlns:sodipodi="http://sodipodi.sourceforge.net/DTD/sodipodi-0.dtd"
   xmlns:inkscape="http://www.inkscape.org/namespaces/inkscape"
   width="76mm"
   height="21mm"
   viewBox="0 0 76 21"
   version="1.1"
   id="svg8"
   inkscape:version="0.92.4 (5da689c313, 2019-01-14)"
   sodipodi:docname="usthath_calig_new.svg">
  <defs
     id="defs2">
    <style
       id="style990">.cls-1{fill:#111828;}.cls-2{fill:#121728;}.cls-3{fill:#131728;}</style>
  </defs>
  <sodipodi:namedview
     id="base"
     pagecolor="#ffffff"
     bordercolor="#666666"
     borderopacity="1.0"
     inkscape:pageopacity="0.0"
     inkscape:pageshadow="2"
     inkscape:zoom="0.49497475"
     inkscape:cx="344.26984"
     inkscape:cy="436.45331"
     inkscape:document-units="mm"
     inkscape:current-layer="layer1"
     showgrid="false"
     inkscape:window-width="1920"
     inkscape:window-height="1009"
     inkscape:window-x="-8"
     inkscape:window-y="-8"
     inkscape:window-maximized="1" />
  <metadata
     id="metadata5">
    <rdf:RDF>
      <cc:Work
         rdf:about="">
        <dc:format>image/svg+xml</dc:format>
        <dc:type
           rdf:resource="http://purl.org/dc/dcmitype/StillImage" />
        <dc:title></dc:title>
      </cc:Work>
    </rdf:RDF>
  </metadata>
  <g
     inkscape:label="Layer 1"
     inkscape:groupmode="layer"
     id="layer1"
     transform="translate(0,-276)">
    <g
       id="layer1-5"
       inkscape:label="Layer 1"
       transform="matrix(0.53835507,0,0,0.62269208,-17.860738,185.63573)">
      <path
         inkscape:connector-curvature="0"
         id="path826"
         d="m 83.44769,174.53405 c -0.181901,-0.0649 -0.330729,-0.22043 -0.330729,-0.34557 0,-0.31667 2.168388,-1.57972 2.432161,-1.4167 0.630045,0.38939 -1.33377,2.03625 -2.101432,1.76227 z m 10.164411,-1.04408 c -0.364911,-0.36491 -0.153972,-1.3703 0.485069,-2.31198 0.705847,-1.04012 0.823875,-1.48038 0.396875,-1.48038 -0.370652,0 -0.330973,-1.15069 0.05292,-1.53458 0.497986,-0.49799 1.304431,-0.37529 1.460688,0.22224 0.133401,0.51012 0.168339,0.51513 0.636688,0.0913 0.272548,-0.24665 0.495541,-0.35024 0.495541,-0.23019 0,0.12004 -0.784151,1.0305 -1.742556,2.02323 -0.958406,0.99274 -1.690188,1.95477 -1.626182,2.13785 0.06845,0.19581 0.523115,0.31961 1.104153,0.30065 1.331953,-0.0435 3.093424,-1.29544 3.506423,-2.49223 l 0.315793,-0.91513 0.0149,0.84268 c 0.0224,1.26506 0.47906,2.28161 0.94466,2.10294 0.2671,-0.1025 0.393187,0.0188 0.393187,0.37828 0,0.29105 -0.195807,0.60431 -0.435127,0.69615 -0.53119,0.20384 -1.152356,-0.56417 -1.152356,-1.42478 0,-0.73745 -0.373671,-0.78972 -0.844894,-0.1182 -0.88586,1.26241 -3.386662,2.33131 -4.0058,1.71217 z m 2.138715,-4.65226 c -0.06064,-0.1819 -0.268994,-0.33073 -0.463021,-0.33073 -0.194027,0 -0.402387,0.14883 -0.463021,0.33073 -0.06558,0.19675 0.122002,0.33073 0.463021,0.33073 0.341019,0 0.5286,-0.13398 0.463021,-0.33073 z m -52.250529,4.37576 c -0.481805,-0.17327 -0.925858,-2.11101 -0.704662,-3.07498 0.184822,-0.80545 0.203299,-0.78164 0.47918,0.61745 0.227908,1.1558 0.382213,1.43921 0.749968,1.37747 0.260268,-0.0437 0.46302,0.0869 0.46302,0.29833 0,0.48392 -0.567156,0.9329 -0.987506,0.78173 z m 7.108282,-0.82109 c 0.489875,-0.55517 1.146556,-1.35884 1.459291,-1.78594 0.468024,-0.63917 0.652737,-0.72621 1.044199,-0.49203 0.352612,0.21093 0.671654,0.18669 1.233821,-0.0938 0.863109,-0.43057 1.226418,-0.26546 0.730554,0.33202 -0.203126,0.24476 -0.773683,0.40327 -1.451495,0.40327 -1.015051,0 -1.218452,0.12054 -2.232311,1.32292 -0.613525,0.7276 -1.24133,1.32292 -1.395121,1.32292 -0.153792,0 0.121186,-0.45423 0.611062,-1.0094 z m 21.191948,0.69962 c -0.222845,-0.22285 -0.313706,-1.24558 -0.288636,-3.24887 l 0.03659,-2.92365 0.253707,2.38125 c 0.251343,2.35905 0.552092,3.18479 1.048266,2.87814 0.146079,-0.0903 0.218731,0.1095 0.16846,0.46323 -0.100031,0.70383 -0.731335,0.93695 -1.218383,0.4499 z m 16.067654,-0.24048 c -0.193542,-0.36164 -0.229909,-1.23943 -0.10609,-2.56076 0.301827,-3.22092 0.59789,-3.70068 0.623806,-1.01086 0.01717,1.78144 0.12796,2.47668 0.451705,2.83442 0.483735,0.53452 0.320534,1.28746 -0.279059,1.28746 -0.217728,0 -0.528392,-0.24762 -0.690362,-0.55026 z m 3.504293,0.21775 c -0.440328,-0.53057 -0.635569,-2.33718 -0.350078,-3.23937 l 0.251174,-0.79375 0.02275,0.97496 c 0.03308,1.41835 0.469654,2.42051 0.97069,2.22825 0.308576,-0.11842 0.390335,-0.0101 0.327052,0.43342 -0.09796,0.68647 -0.793549,0.91224 -1.221581,0.39649 z m 15.864066,-0.3414 c -0.16888,-0.37065 -0.29632,-1.29338 -0.28319,-2.05052 0.0248,-1.4333 0.10602,-1.30945 0.61517,0.93849 0.11524,0.50881 0.33091,0.7276 0.71723,0.7276 0.39504,0 0.50668,0.11924 0.39183,0.41852 -0.0883,0.23018 -0.1606,0.46831 -0.1606,0.52917 0,0.0609 -0.21901,0.11065 -0.48669,0.11065 -0.26769,0 -0.62487,-0.30326 -0.79375,-0.67391 z m 8.72414,-0.33549 c 0.48987,-0.55517 1.14655,-1.35884 1.45929,-1.78594 0.46802,-0.63917 0.65273,-0.72621 1.0442,-0.49203 0.35261,0.21093 0.67165,0.18669 1.23382,-0.0938 0.8631,-0.43057 1.22641,-0.26546 0.73055,0.33202 -0.20089,0.24207 -0.77124,0.40333 -1.42677,0.4034 -0.98212,1.2e-4 -1.20677,0.13332 -2.23124,1.32292 -0.62654,0.72753 -1.26547,1.32279 -1.41985,1.32279 -0.15438,0 0.12012,-0.45423 0.61,-1.0094 z m 11.50472,0.60543 c -0.30939,-0.30939 -0.41938,-0.87946 -0.39789,-2.06233 l 0.0297,-1.63475 0.31318,1.45521 c 0.24187,1.12382 0.41925,1.44628 0.77894,1.41598 0.3297,-0.0278 0.44208,0.12075 0.38473,0.50845 -0.10607,0.71697 -0.57489,0.85121 -1.10865,0.31744 z m 4.92317,0.0291 c 0.54183,-0.19341 1.41696,-0.7308 1.94475,-1.19421 0.77662,-0.68188 1.10592,-0.81042 1.72685,-0.67404 0.42839,0.0941 0.76723,0.057 0.76723,-0.084 0,-0.13889 0.28821,-0.25253 0.64046,-0.25253 0.43666,0 0.59576,0.11649 0.49999,0.36608 -0.15767,0.41087 -0.87685,0.60561 -2.08702,0.56514 -0.51499,-0.0172 -1.26187,0.28072 -2.03205,0.81062 -0.66977,0.46082 -1.49397,0.83262 -1.83155,0.82623 -0.46846,-0.009 -0.38053,-0.0949 0.37134,-0.36327 z m 7.60687,-0.0304 c -0.38296,-0.46144 -0.20353,-4.83831 0.24431,-5.95957 0.19325,-0.48383 0.2625,0.0694 0.27504,2.19764 0.0138,2.3444 0.0865,2.84427 0.41365,2.84427 0.42703,0 0.49034,0.24233 0.23628,0.9044 -0.20371,0.53086 -0.73471,0.53688 -1.16928,0.0133 z m 4.06821,-0.13767 c -1.37936,-0.88368 -1.43977,-2.2082 -0.17753,-3.89288 0.38898,-0.51918 0.5864,-1.05578 0.49471,-1.34468 -0.15809,-0.49809 0.40055,-1.14793 1.24397,-1.44704 0.36869,-0.13075 0.46302,-0.0156 0.46302,0.56505 0,0.52596 -0.37194,1.09525 -1.33428,2.04221 -1.21203,1.19268 -1.32717,1.40915 -1.25677,2.36267 0.0633,0.85662 0.24287,1.16078 0.97653,1.65365 1.10884,0.7449 0.74291,0.79941 -0.40965,0.061 z m 1.63531,-6.01954 c -0.17779,-0.17779 -0.93406,0.48212 -0.93406,0.81504 0,0.15025 0.23886,0.057 0.53079,-0.20717 0.29193,-0.26419 0.4734,-0.53774 0.40327,-0.60787 z m 5.28493,6.12909 c -0.3855,-0.38551 -0.42867,-0.74957 -0.27587,-2.32692 0.23605,-2.43693 0.63508,-2.82354 0.62227,-0.6029 -0.0104,1.80972 0.16734,2.42661 0.61889,2.14753 0.15959,-0.0986 0.23269,0.0791 0.18016,0.43798 -0.11446,0.782 -0.57064,0.91912 -1.14545,0.34431 z m 5.48332,0.12361 c -0.18009,-0.18009 -0.31314,-0.92149 -0.29814,-1.66137 0.0236,-1.16397 0.0522,-1.23089 0.22236,-0.5193 0.25999,1.08754 0.49487,1.43211 0.97619,1.43211 0.51888,0 0.36127,0.89343 -0.17585,0.99687 -0.21964,0.0423 -0.54569,-0.0694 -0.72456,-0.24831 z M 47.086514,172.47799 c -0.218474,-0.47949 -0.221809,-0.8221 -0.01223,-1.25677 0.27574,-0.5719 0.288886,-0.56252 0.306024,0.21823 0.0234,1.06609 0.261597,1.2695 0.856331,0.73127 0.399487,-0.36153 0.484492,-0.37092 0.484492,-0.0535 0,0.48019 -0.521071,1.01996 -0.984631,1.01996 -0.192297,0 -0.484789,-0.29664 -0.649982,-0.6592 z m 9.30753,-0.0757 c 0,-0.40419 0.185491,-0.99971 0.412203,-1.32339 0.472745,-0.67494 0.300017,-1.17037 -0.324487,-0.93073 -0.288981,0.11089 -0.385245,0.0439 -0.301532,-0.20999 0.177309,-0.53766 1.173192,-0.61553 1.368334,-0.10699 0.08995,0.23439 -0.0818,0.90707 -0.381663,1.49485 -0.29986,0.58777 -0.481097,1.23573 -0.402748,1.4399 0.07835,0.20417 0.02713,0.37122 -0.113828,0.37122 -0.140953,0 -0.256279,-0.33069 -0.256279,-0.73487 z m 0.801016,0.53644 c 0.01071,-0.2925 2.373984,-1.43492 2.373984,-1.1476 0,0.2849 -1.641127,1.34603 -2.081751,1.34603 -0.164724,0 -0.29623,-0.0893 -0.292233,-0.19843 z m 5.140082,-0.451 c -0.357187,-0.35719 -0.649431,-0.95841 -0.649431,-1.33606 0,-0.79062 0.567548,-1.99532 1.179153,-2.5029 0.254864,-0.21152 0.356486,-0.54986 0.258181,-0.85959 -0.195586,-0.61624 0.551046,-1.53118 1.249506,-1.53118 0.888922,0 0.555743,1.0802 -0.686248,2.22489 -1.819069,1.67655 -2.043608,2.74038 -0.856712,4.05896 0.723998,0.80432 0.319747,0.76008 -0.494449,-0.0541 z m 2.099932,-5.32415 c 0.08082,-0.21062 -0.01244,-0.37642 -0.211729,-0.37642 -0.424531,0 -1.011732,0.64396 -0.78968,0.86601 0.233573,0.23357 0.83714,-0.0615 1.001409,-0.48959 z m 9.960014,5.37827 c 0.0052,-0.32742 0.17953,-0.89297 0.387498,-1.25677 0.491514,-0.85981 0.487378,-1.05833 -0.02204,-1.05833 -0.542176,0 -0.3355,-0.63493 0.24321,-0.74716 0.750896,-0.14563 0.832708,0.75386 0.180404,1.98346 -0.33686,0.63499 -0.528677,1.23832 -0.42626,1.34074 0.102418,0.10242 0.774952,-0.14473 1.494518,-0.54922 0.719566,-0.40449 1.308301,-0.60775 1.308301,-0.4517 0,0.44052 -1.636768,1.3322 -2.447396,1.3333 -0.581226,8e-4 -0.725718,-0.11877 -0.718227,-0.59432 z m 47.880222,0.46748 c 0,-0.0703 0.59531,-0.4295 1.32291,-0.79821 1.50724,-0.76377 1.80859,-0.47111 0.38175,0.37074 -0.87548,0.51655 -1.70466,0.72448 -1.70466,0.42747 z m -52.519808,-1.3181 c 0,-0.92405 0.06951,-1.09722 0.34774,-0.86631 0.216566,0.17974 0.284355,0.54552 0.179713,0.96969 -0.284986,1.15521 -0.527453,1.10768 -0.527453,-0.10338 z m 52.002598,0.78447 c 0.004,-0.29104 0.17695,-0.82682 0.38491,-1.19062 0.51289,-0.8972 0.48939,-1.05833 -0.15433,-1.05833 -0.70317,0 -0.52605,-0.63292 0.20753,-0.7416 0.84271,-0.12484 0.9126,0.60387 0.20392,2.12609 -0.35685,0.7665 -0.64576,1.15551 -0.64203,0.86446 z m -39.142109,-0.20233 c -1.726181,-0.89089 -2.138111,-4.17567 -0.908754,-7.24655 0.388821,-0.97126 0.86251,-2.43102 1.052648,-3.24393 l 0.345699,-1.47802 -0.137097,1.39948 c -0.0754,0.76971 -0.489563,2.35541 -0.920353,3.52377 -1.29364,3.50854 -0.875821,5.54721 1.219105,5.94839 0.979308,0.18754 2.230853,-0.7392 3.023137,-2.23856 0.692455,-1.31044 0.701609,-0.28136 0.01029,1.1565 -0.688642,1.43231 -1.111414,1.91375 -1.965717,2.23856 -0.899263,0.3419 -0.94393,0.34035 -1.718956,-0.0596 z m 28.993859,-0.6907 c -0.28324,-1.64506 -0.63575,-2.20942 -1.25691,-2.01227 -0.39474,0.12529 -0.51305,0.0367 -0.51305,-0.38416 0,-0.69539 0.37613,-0.692 1.36524,0.0123 l 0.78546,0.5593 0.59535,-0.5593 c 0.78576,-0.73819 1.17583,-0.70587 1.38172,0.11448 0.20654,0.8229 -0.10169,1.21497 -0.45659,0.58078 -0.6083,-1.08696 -1.36176,-0.0737 -1.62486,2.18502 -0.0552,0.47415 -0.13349,0.33366 -0.27636,-0.49616 z m -7.32634,-0.32624 c -0.32594,-0.95398 -0.51449,-1.16198 -1.0534,-1.16198 -0.41429,0 -0.68978,-0.17078 -0.74688,-0.46302 -0.12089,-0.61866 0.35788,-0.58422 1.31076,0.0943 0.72196,0.51408 0.8191,0.52434 1.25231,0.13229 0.67856,-0.61409 1.08942,-0.52302 1.08942,0.24149 0,0.574 -0.0894,0.64406 -0.64404,0.50485 -0.58703,-0.14734 -0.65143,-0.0742 -0.7276,0.82621 l -0.0836,0.98784 z m 63.02817,-0.008 c -0.30893,-1.20553 -0.9266,-1.80625 -1.27597,-1.24096 -0.11557,0.187 -0.2618,0.13615 -0.41967,-0.14594 -0.37446,-0.66912 -0.0237,-0.98057 0.72184,-0.64089 0.35861,0.16339 0.65201,0.39702 0.65201,0.51919 0,0.37638 0.85833,0.24568 1.35837,-0.20685 0.59898,-0.54207 1.28746,-0.29519 1.28746,0.46166 0,0.56397 -0.0134,0.56633 -0.53541,0.0939 -0.68393,-0.61895 -1.00062,-0.31564 -1.26888,1.21525 l -0.20531,1.17165 z m -101.898354,0.46156 c -0.235473,-0.28373 -0.197234,-0.5869 0.166041,-1.31641 0.474066,-0.952 0.87611,-1.24641 0.860429,-0.63008 -0.0046,0.1819 -0.183222,0.56185 -0.396875,0.84432 -0.590221,0.78034 -0.471705,1.0139 0.446134,0.87919 0.753774,-0.11063 0.787309,-0.0879 0.346305,0.23455 -0.622929,0.4555 -1.037197,0.45213 -1.422034,-0.0116 z m 81.204744,-0.0269 c -0.26567,-0.32012 -0.2354,-0.53456 0.15874,-1.12448 0.26785,-0.40091 0.46053,-0.81823 0.42817,-0.92737 -0.0324,-0.10914 0.0602,-0.19843 0.20574,-0.19843 0.38641,0 0.32325,0.61505 -0.12387,1.2062 -0.58313,0.77096 -0.48849,0.98273 0.38204,0.85497 0.63023,-0.0925 0.72936,-0.0457 0.49677,0.23455 -0.38691,0.4662 -1.14135,0.44404 -1.54759,-0.0454 z m 14.81557,-0.49765 c 0,-0.36292 -0.11915,-0.97325 -0.26479,-1.3563 -0.20346,-0.53513 -0.38731,-0.65756 -0.79375,-0.52856 -0.41246,0.13091 -0.52896,0.0474 -0.52896,-0.37911 0,-0.69554 0.37615,-0.69199 1.36607,0.0129 l 0.7863,0.55989 0.52709,-0.56576 c 0.65549,-0.70359 1.02471,-0.50458 1.02471,0.55231 0,0.68739 -0.0598,0.76092 -0.39351,0.48396 -0.60342,-0.50079 -1.19399,-0.12139 -1.19399,0.76704 0,0.43255 -0.11907,0.86003 -0.26459,0.94996 -0.14937,0.0923 -0.26458,-0.1238 -0.26458,-0.49632 z m -29.47273,-0.31907 c -0.26536,-0.6915 -0.18678,-2.27472 0.10398,-2.09502 0.14552,0.0899 0.26458,0.49384 0.26458,0.89756 0,0.9067 0.23823,1.17348 0.70326,0.78754 0.27808,-0.23078 0.35508,-0.17291 0.35508,0.26688 0,0.41591 -0.16422,0.56156 -0.63315,0.56156 -0.34824,0 -0.70543,-0.18833 -0.79375,-0.41852 z m -86.668506,-0.75902 c -0.255033,-0.30729 -0.112056,-0.51058 0.769367,-1.09388 1.622165,-1.07349 1.927573,-0.22602 0.328806,0.9124 -0.670681,0.47757 -0.83052,0.50398 -1.098173,0.18148 z m 14.330059,-0.47789 c -0.447749,-0.5395 -0.655772,-2.36249 -0.354552,-3.10707 0.25697,-0.6352 0.2684,-0.6247 0.287975,0.26458 0.03266,1.48378 0.288955,2.11667 0.857167,2.11667 0.349333,0 0.488898,0.1496 0.429124,0.45998 -0.111437,0.57864 -0.830114,0.73528 -1.219714,0.26584 z m 65.370407,0.0131 c -0.43487,-0.53804 -0.65383,-2.40706 -0.36638,-3.12737 0.24827,-0.62213 0.26211,-0.60877 0.28149,0.27175 0.0327,1.48378 0.28896,2.11666 0.85717,2.11666 0.34933,0 0.4889,0.14961 0.42912,0.45999 -0.10994,0.5709 -0.83026,0.73816 -1.2014,0.27897 z m 11.16476,-0.87124 c -0.0682,-0.21828 -0.17592,-0.5654 -0.23939,-0.77137 -0.0635,-0.20596 -0.0203,-0.71198 0.0959,-1.12447 0.19907,-0.70655 0.22288,-0.67681 0.41102,0.51341 0.16519,1.04511 0.26402,1.21003 0.57193,0.95449 0.45168,-0.37486 0.74762,-0.14347 0.53273,0.41653 -0.20089,0.52351 -1.20961,0.5319 -1.37221,0.0114 z M 43.569385,167.2155 c -0.687338,-0.68733 -1.462842,-2.94837 -1.462842,-4.26502 0,-1.80414 0.779808,-3.52968 2.540434,-5.62141 0.949722,-1.12833 1.961062,-2.46822 2.247423,-2.97754 0.393731,-0.7003 0.479637,-0.7648 0.352392,-0.26459 -0.228025,0.89638 -0.644192,1.52106 -2.190771,3.28843 -1.525641,1.74343 -2.184597,3.00559 -2.354043,4.50892 -0.253014,2.24473 0.983435,4.63807 2.39612,4.63807 0.817179,0 2.401102,-1.06572 2.522751,-1.69739 0.10842,-0.56298 -0.367206,-0.93857 -1.195927,-0.94439 -1.08275,-0.008 -1.473978,-0.72917 -1.360618,-2.50945 0.154279,-2.42291 1.342308,-3.85181 2.560657,-3.07983 0.56439,0.35761 0.137901,1.32852 -0.509238,1.15929 -0.646039,-0.16894 -1.461713,0.52049 -1.689485,1.42801 -0.210355,0.83812 0.163915,1.30017 1.225085,1.5124 1.176922,0.23539 1.540637,0.62698 1.540637,1.65871 0,2.92739 -2.885106,4.90326 -4.622575,3.16579 z m 30.287159,0.424 c 0,-0.12341 0.370684,-0.57409 0.823741,-1.00149 1.78399,-1.68299 3.103157,-4.83455 2.7359,-6.5362 -0.221472,-1.02617 -0.953712,-2.4623 -1.717768,-3.36903 l -0.557374,-0.66146 0.167013,1.01097 c 0.09186,0.55604 0.232304,1.18112 0.3121,1.38907 0.0798,0.20795 0.03213,0.37808 -0.105923,0.37808 -0.449522,0 -1.661046,-5.3765 -1.294191,-5.74336 0.440402,-0.4404 3.17718,3.96465 3.894503,6.26849 0.571992,1.83708 0.516294,3.47664 -0.161809,4.76306 -0.675034,1.28059 -4.096192,4.20537 -4.096192,3.50187 z m 11.992658,-0.22125 c -1.116806,-0.46781 -1.673908,-1.32091 -1.673908,-2.56328 0,-0.90425 0.185386,-1.19854 1.627632,-2.58374 l 1.627635,-1.56326 0.850993,0.52595 c 1.049705,0.64875 1.907183,0.66955 2.59403,0.0629 0.512266,-0.45244 0.520452,-0.44336 0.358177,0.39687 -0.210071,1.08773 0.218517,1.12942 1.678456,0.16328 1.093216,-0.72345 1.338403,-1.15546 0.655786,-1.15546 -0.480084,0 -0.53585,-1.07811 -0.07938,-1.53459 0.413742,-0.41374 1.576755,-0.40658 2.148274,0.0132 0.387218,0.28443 0.405397,0.44925 0.129857,1.17737 -0.277645,0.7337 -0.254902,0.919 0.170498,1.38906 0.703905,0.77781 1.297358,0.67344 2.233546,-0.39282 0.932565,-1.06213 0.979175,-1.25007 0.424283,-1.71059 -0.445481,-0.36971 -0.543679,-1.5875 -0.12801,-1.5875 0.147875,0 0.461262,0.40348 0.696422,0.89661 0.74457,1.56138 -0.11306,3.81956 -1.676362,4.41392 -0.734947,0.27943 -2.001057,-0.24592 -2.436643,-1.01104 -0.220724,-0.38771 -0.34122,-0.40861 -0.740754,-0.12848 -1.691254,1.18578 -2.108685,1.38515 -2.593819,1.23881 -0.291042,-0.0878 -0.910302,-0.18416 -1.376135,-0.21415 -0.465831,-0.03 -0.932421,-0.13998 -1.036863,-0.24443 -0.104441,-0.10444 -0.407916,0.007 -0.674386,0.24857 -0.451778,0.40885 -0.519864,0.40644 -1.008361,-0.0356 -0.508175,-0.45989 -0.560107,-0.4444 -1.7336,0.51719 -1.390841,1.13969 -1.435463,1.68934 -0.181936,2.24109 0.510725,0.2248 0.931744,0.6379 1.023755,1.00451 0.204063,0.81305 0.1206,0.8544 -0.879192,0.4356 z m 71.430288,-0.43287 c -1.70836,-1.87563 -1.50604,-4.31187 0.51806,-6.23794 0.84507,-0.80416 0.90711,-0.96404 0.71865,-1.85209 -0.11345,-0.53457 -0.28098,-1.92445 -0.37229,-3.08862 l -0.16603,-2.11666 0.92769,1.05833 c 0.51022,0.58208 1.19847,1.68138 1.52944,2.44288 0.33097,0.7615 0.71146,1.38658 0.84555,1.38906 0.13408,0.002 0.76815,-0.54274 1.40904,-1.2116 0.97658,-1.01922 1.0993,-1.08858 0.7579,-0.4284 -0.22405,0.43326 -0.7716,1.09423 -1.21678,1.46883 l -0.80943,0.68109 0.17704,2.51855 c 0.20209,2.875 -0.22033,4.50267 -1.41179,5.43987 -0.91359,0.71863 -2.22078,0.69017 -2.90705,-0.0633 z m 3.09398,-1.69198 c 0.82838,-0.94347 0.84475,-1.01184 0.75502,-3.1531 -0.0505,-1.2038 -0.1772,-2.27414 -0.28168,-2.37853 -0.10447,-0.10439 -0.55096,-0.0403 -0.99219,0.14249 -0.58895,0.24396 -0.81039,0.5172 -0.83292,1.0278 -0.0198,0.44822 -0.0737,0.53088 -0.15169,0.23249 -0.17593,-0.67321 -0.45642,-0.57707 -1.37771,0.47223 -0.70199,0.79952 -0.82116,1.14291 -0.82116,2.36624 0,1.17882 0.10363,1.50359 0.58804,1.84288 1.0388,0.72761 2.16591,0.52765 3.11429,-0.5525 z m -0.27844,-6.11346 0.57209,-0.46325 -0.8323,-1.25654 c -0.45776,-0.6911 -0.94871,-1.25654 -1.09098,-1.25654 -0.15992,0 -0.18829,0.58091 -0.0743,1.52135 0.25994,2.14492 0.39864,2.28649 1.42552,1.45498 z m -103.80497,7.71765 c -0.234055,-0.60993 -0.162211,-2.53893 0.117443,-3.15336 0.16543,-0.36346 0.192852,-0.1438 0.08757,0.70148 -0.182488,1.46517 0.0647,2.43578 0.570855,2.24155 0.232332,-0.0891 0.307455,-0.002 0.212373,0.24545 -0.195634,0.50981 -0.7872,0.48879 -0.988243,-0.0351 z m 65.35708,0.013 c -0.25148,-0.65534 -0.1902,-2.58601 0.0963,-3.03406 0.17236,-0.26956 0.20944,0.0275 0.11558,0.92604 -0.1557,1.49058 0.21383,2.40486 0.69509,1.71979 0.23118,-0.32908 0.26456,-0.307 0.1954,0.12926 -0.10418,0.65717 -0.87966,0.83935 -1.10237,0.25897 z m -26.692874,-0.4213 c -0.331441,-0.18549 -0.452662,-0.56853 -0.43321,-1.36889 l 0.02701,-1.11133 0.281409,0.87929 c 0.212161,0.66292 0.400838,0.84806 0.766738,0.75237 0.558128,-0.14595 0.659517,0.40794 0.151802,0.82931 -0.220459,0.18296 -0.489542,0.18949 -0.79375,0.0193 z m 3.357055,-0.34578 c -0.0936,-0.37293 -0.08142,-0.88667 0.02707,-1.14166 0.169476,-0.39834 0.222636,-0.37048 0.377592,0.19785 0.11125,0.40803 0.35616,0.64647 0.63923,0.62234 0.687917,-0.0586 0.41063,0.81603 -0.29045,0.91619 -0.439106,0.0627 -0.625323,-0.0843 -0.753439,-0.59472 z m 5.499819,-0.0107 c -0.88534,-0.74497 -1.47673,-2.4874 -1.31011,-3.85999 l 0.11042,-0.9096 0.0423,1.00533 c 0.0505,1.19974 0.64709,2.44678 1.3506,2.82329 1.90241,1.01814 3.98341,-0.91372 3.98341,-3.69793 0,-1.09099 -0.3847,-1.57161 -0.86972,-1.08659 -0.85664,0.85663 -1.80328,-0.0358 -1.58212,-1.49149 0.096,-0.63188 0.26761,-0.8599 0.64718,-0.8599 0.91918,0 1.48445,0.49813 1.9507,1.71898 0.85284,2.23313 0.0566,5.5153 -1.58008,6.51335 -1.09501,0.66774 -1.81266,0.62706 -2.74263,-0.15545 z m 23.55189,0.3446 c -0.39077,-0.39078 -0.43202,-1.70966 -0.0606,-1.93919 0.15121,-0.0935 0.26458,0.13983 0.26458,0.54441 0,0.58447 0.095,0.68309 0.54486,0.56545 0.44054,-0.1152 0.5292,-0.033 0.46303,0.42946 -0.0946,0.66089 -0.73838,0.87332 -1.21183,0.39987 z m 2.58519,0.18768 c 0,-0.0671 0.48253,-0.25203 1.07229,-0.41083 1.46978,-0.39577 2.99636,-1.97295 3.37847,-3.49043 0.16576,-0.65829 0.53787,-1.48085 0.82692,-1.82791 l 0.52555,-0.63103 0.009,0.61271 c 0.0261,1.81303 1.21784,2.11321 2.6885,0.67715 l 0.98221,-0.95911 0.78958,0.56223 c 1.37578,0.97964 2.95013,0.51854 2.61429,-0.76568 -0.21804,-0.83381 0.31517,-2.38318 0.89383,-2.59724 0.78871,-0.29176 4.21123,0.24898 4.21123,0.66535 0,0.19067 -0.53578,0.59852 -1.19063,0.90633 -0.91477,0.42999 -1.19062,0.70378 -1.19062,1.18167 0,1.33803 2.04393,2.18331 3.45424,1.42854 0.61794,-0.33071 1.353,-1.67871 1.17687,-2.15821 -0.25966,-0.7069 0.26616,-1.05772 1.21634,-0.8115 0.71297,0.18475 0.89942,0.36671 0.89942,0.87771 0,0.35455 -0.14882,0.65952 -0.33073,0.67771 -0.1819,0.0182 -0.50731,0.048 -0.72314,0.0661 -0.21583,0.0182 -0.68656,0.61353 -1.04606,1.32298 -0.71972,1.42029 -1.03211,1.62051 -2.52839,1.62051 -0.80656,0 -1.15287,-0.16601 -1.69816,-0.81405 -0.37674,-0.44772 -0.68498,-1.03601 -0.68498,-1.3073 0,-0.27129 -0.10707,-0.55942 -0.23793,-0.6403 -0.24488,-0.15134 -1.87874,1.54312 -1.87874,1.94843 0,0.35905 -1.29764,0.58908 -1.78489,0.3164 -0.31658,-0.17716 -0.53218,-0.124 -0.75986,0.18737 -0.29383,0.40184 -0.35627,0.39997 -0.82562,-0.0248 -0.64323,-0.58211 -0.74917,-0.57657 -1.68247,0.088 -1.0017,0.71327 -1.86021,0.5741 -2.31377,-0.37508 -0.43341,-0.907 -0.63196,-0.73158 -1.21849,1.07653 -0.61426,1.89354 -1.62936,2.71979 -3.34145,2.71979 -0.71644,0 -1.30262,-0.0549 -1.30262,-0.12209 z m 14.44286,-6.74183 c 0.80213,-0.70429 0.83795,-0.79397 0.37565,-0.9407 -0.76288,-0.24213 -1.58934,0.31274 -1.58934,1.06706 0,0.83437 0.13555,0.82025 1.21369,-0.12636 z m -95.052805,6.21996 c 2.424505,-0.65165 3.300457,-1.77825 4.009762,-5.15714 0.491237,-2.34008 0.863724,-2.94593 1.37844,-2.24201 0.452025,0.61818 0.435697,0.89936 -0.05222,0.89936 -0.218281,0 -0.396875,0.0439 -0.396875,0.0976 0,0.86803 -0.924469,4.95725 -1.224086,5.41452 -0.55897,0.8531 -1.937648,1.37034 -3.596062,1.34915 l -1.39756,-0.0179 z m 41.451603,-0.11936 c 0,-0.2743 0.293468,-0.69102 0.65215,-0.92604 1.301213,-0.85259 1.658533,-0.29789 0.499841,0.77596 -0.839674,0.77818 -1.151991,0.81887 -1.151991,0.15008 z m 17.727092,0.28379 c 0,-0.10451 0.62463,-0.41186 1.38807,-0.68301 1.70231,-0.60461 3.13205,-1.99458 3.76072,-3.65613 0.55064,-1.45535 0.39667,-2.18858 -0.41502,-1.97632 -0.85848,0.2245 -1.29418,-0.0733 -1.29418,-0.88459 0,-1.77446 0.98033,-2.15547 1.85498,-0.72094 1.28548,2.10835 0.23945,6.40964 -1.8097,7.44146 -0.79727,0.40146 -3.48487,0.77128 -3.48487,0.47953 z m 5.89558,-0.0739 c 2.40676,-0.56673 3.38396,-1.59298 4.04469,-4.24774 0.84175,-3.38205 0.93247,-3.66553 1.17312,-3.66553 0.13479,0 0.37774,0.24788 0.53988,0.55085 0.23418,0.43756 0.20852,0.61441 -0.1248,0.85989 -0.25497,0.18778 -0.57237,1.18033 -0.80893,2.52954 -0.21412,1.22128 -0.57975,2.51114 -0.8125,2.86637 -0.57898,0.88363 -1.94418,1.40062 -3.61468,1.36885 l -1.39757,-0.0266 z m 51.6513,-0.18322 c 1.4405,-0.69249 3.45629,-2.91723 3.85795,-4.25787 0.63255,-2.11127 -0.39224,-2.92934 -2.54353,-2.03048 -1.1223,0.46893 -1.14043,0.74813 -0.1238,1.90601 0.43657,0.49722 0.79375,1.19754 0.79375,1.55629 0,0.35873 -0.0494,0.65225 -0.10978,0.65225 -0.0604,0 -0.6009,-0.61682 -1.20115,-1.3707 -0.92316,-1.15944 -1.06482,-1.49587 -0.9191,-2.18282 0.22426,-1.05724 0.68725,-1.55864 1.97581,-2.1397 1.42032,-0.64047 2.22455,-0.28059 2.66606,1.19305 0.60858,2.03125 -0.46083,5.49057 -2.01143,6.50655 -0.32893,0.21553 -1.2382,0.45584 -2.02059,0.53403 l -1.42252,0.14216 z m -97.343292,-0.0193 c -0.240056,-0.38842 0.116663,-1.09618 0.552487,-1.09618 0.246732,0 0.356331,0.20823 0.302422,0.57459 -0.09157,0.62228 -0.600697,0.93291 -0.854909,0.52159 z m 82.821422,-0.43472 c 0.11313,-0.29104 0.20322,-0.91612 0.20018,-1.38906 -0.003,-0.47295 0.0927,-0.8599 0.21277,-0.8599 0.3858,0 0.23257,1.73342 -0.20018,2.26453 -0.41241,0.50615 -0.41549,0.50592 -0.21277,-0.0156 z m -86.040724,-2.10165 c -0.719948,-0.30781 -1.363253,-1.22751 -1.742405,-2.491 -0.07038,-0.23455 -0.443787,0.0125 -1.07529,0.71155 -1.864827,2.06414 -3.097211,2.37328 -3.99553,1.00227 -0.61439,-0.93768 -2.604074,-7.60336 -2.413345,-8.08499 0.0959,-0.24217 0.518007,0.79168 1.019555,2.49715 1.315916,4.47466 2.092565,5.56845 3.498896,4.92769 0.532236,-0.24251 0.628585,-0.47863 0.631891,-1.54858 0.0046,-1.47705 0.468188,-2.54164 1.165341,-2.6759 0.271971,-0.0524 1.251247,-0.0142 2.176167,0.0849 2.068908,0.22156 2.261861,0.78073 0.557195,1.61473 -0.911099,0.44576 -1.111502,0.67163 -1.056092,1.19034 0.167985,1.57256 2.677957,2.15124 3.924417,0.90478 0.855281,-0.85528 0.981826,-0.83353 0.769696,0.13229 -0.258934,1.17892 0.763763,0.96232 2.338727,-0.49535 1.563274,-1.44685 1.875702,-3.01233 0.990303,-4.96211 -0.667737,-1.47046 -1.070726,-1.67892 -1.116272,-0.57743 -0.01992,0.48153 -0.126748,0.10161 -0.237415,-0.84428 -0.11067,-0.94588 -0.106342,-1.82094 0.0096,-1.94456 0.524769,-0.55946 2.384981,3.85252 2.378083,5.64024 -0.0042,1.07582 -1.155393,3.24844 -2.213655,4.1776 -1.043594,0.91629 -1.477177,1.02394 -2.315983,0.57503 -0.330784,-0.17703 -0.646155,-0.19069 -0.842502,-0.0365 -0.591047,0.46418 -1.636819,0.55042 -2.451396,0.20215 z m -1.845527,-4.40387 c -0.433245,-0.70101 -1.970018,0.36644 -1.970018,1.36838 0,0.51089 0.07783,0.48975 1.059591,-0.28782 0.582776,-0.46156 0.992468,-0.94782 0.910427,-1.08056 z m 46.526681,4.20176 c -0.38346,-0.48532 -0.5843,-2.33715 -0.3384,-3.1202 0.1923,-0.61237 0.21163,-0.59273 0.26046,0.26458 0.0881,1.54743 0.38326,2.25761 0.90012,2.16602 0.32913,-0.0583 0.44081,0.0586 0.37625,0.39383 -0.11253,0.58433 -0.83045,0.76151 -1.19843,0.29577 z m 14.10361,-0.33866 c -0.38092,-0.41102 -1.02329,-2.02496 -1.71123,-4.29948 -1.17656,-3.89 -1.20881,-4.03831 -0.878,-4.03831 0.11838,0 0.49487,0.98227 0.83664,2.18281 1.21303,4.26106 2.17339,5.76174 3.43164,5.36239 0.56477,-0.17926 2.66024,-2.36732 2.66024,-2.7778 0,-0.14932 -0.38689,-0.24128 -0.85974,-0.20435 -0.7249,0.0566 -0.87357,-0.0304 -0.94797,-0.55507 -0.14783,-1.04252 0.184,-1.89131 0.73941,-1.89131 1.24354,0 1.76412,2.58313 0.89127,4.42253 -0.48685,1.02595 -2.26327,2.45663 -3.05031,2.45663 -0.27615,0 -0.77653,-0.29612 -1.11195,-0.65804 z M 50.345176,161.8262 c -0.367639,-0.69014 -0.674439,-4.27143 -0.322993,-3.77032 0.153088,0.21828 0.280164,0.647 0.282392,0.95271 0.0071,0.97392 0.574872,2.26292 0.935759,2.12444 0.504981,-0.19378 0.671856,0.10263 0.372591,0.66181 -0.332754,0.62176 -0.945172,0.6369 -1.267749,0.0314 z m 25.297409,-0.53129 c -0.13825,-1.10886 -0.09344,-1.25215 0.313023,-1.00095 0.341329,0.21096 0.377206,1.64072 0.0463,1.84523 -0.129736,0.0802 -0.291433,-0.29975 -0.359325,-0.84428 z m 40.031635,0.49036 c -0.14833,-0.27716 -0.32919,-1.37849 -0.4019,-2.44739 -0.13784,-2.02638 -0.0489,-1.90706 0.68785,0.92255 0.17547,0.67395 0.38264,0.96839 0.61786,0.87812 0.51822,-0.19886 0.68934,0.0913 0.38699,0.65629 -0.3409,0.63699 -0.94718,0.63249 -1.2908,-0.01 z m 16.37736,-0.70272 c -0.44898,-0.54098 -0.71096,-3.44306 -0.28717,-3.18114 0.16526,0.10213 0.30048,0.52613 0.30048,0.9422 0,1.10099 0.25409,1.59352 0.82206,1.59352 0.57366,0 0.64321,0.28099 0.18336,0.74084 -0.41835,0.41834 -0.60701,0.40067 -1.01873,-0.0954 z m -29.35229,-0.19294 c -0.007,-0.46258 1.11303,-2.34841 2.36439,-3.98106 1.65522,-2.15958 1.72616,-2.43095 0.60902,-2.33004 -0.62623,0.0566 -0.85989,-0.0314 -0.85989,-0.32353 0,-0.52247 0.21763,-0.64095 1.57668,-0.85826 1.09958,-0.17584 1.12421,-0.16389 0.93491,0.45335 -0.19108,0.62301 -1.48703,2.57216 -2.42921,3.6536 -0.26359,0.30255 -0.86479,1.23517 -1.336,2.0725 -0.47121,0.83733 -0.85816,1.42838 -0.8599,1.31344 z m -17.976977,-1.47745 c -0.324425,-0.6062 -0.378167,-4.03433 -0.084,-5.3581 0.14872,-0.66924 0.231582,-0.19692 0.330729,1.88516 0.117756,2.47284 0.184807,2.77381 0.610188,2.73889 0.345861,-0.0284 0.455509,0.11707 0.396875,0.52647 -0.106722,0.74514 -0.896149,0.87584 -1.253794,0.20758 z m 71.485807,0.10003 c -0.44471,-0.5051 -0.41639,-0.83765 0.0878,-1.03112 0.62666,-0.24048 0.95632,-0.19408 0.76944,0.10829 -0.0914,0.1479 -0.27703,0.20041 -0.41249,0.11668 -0.13547,-0.0837 -0.2463,-0.0261 -0.2463,0.12798 0,0.15411 0.32742,0.28398 0.7276,0.28861 0.69693,0.008 0.70595,0.0248 0.21401,0.39687 -0.62349,0.47159 -0.71895,0.47098 -1.14005,-0.007 z m -74.890326,-0.18631 c -0.174625,-0.17462 -0.3175,-0.5583 -0.3175,-0.85262 0,-0.51444 0.0159,-0.5124 0.411877,0.0529 0.488699,0.69771 0.977112,0.74916 1.470322,0.15487 0.310525,-0.37415 0.278897,-0.48667 -0.232185,-0.82602 -0.883198,-0.58642 -0.621954,-2.44498 0.343669,-2.44498 0.57416,0 0.469935,0.44591 -0.141599,0.60583 -0.304062,0.0795 -0.529167,0.36089 -0.529167,0.66146 0,0.30056 0.225105,0.58194 0.529167,0.66146 0.352721,0.0922 0.529166,0.36089 0.529166,0.8057 0,1.19764 -1.302107,1.94303 -2.06375,1.18138 z m 6.555119,-0.89035 c -0.339852,-0.89387 -0.334735,-4.08381 0.0065,-4.08381 0.145521,0 0.264584,0.60313 0.264584,1.34031 0,1.48729 0.346844,2.36385 0.935349,2.36385 0.469937,0 0.499399,0.3115 0.07007,0.74084 -0.508434,0.50843 -0.998654,0.36973 -1.276548,-0.36119 z m 52.190117,0.36891 c -0.21979,-0.21979 -0.31264,-1.18727 -0.28642,-2.98429 l 0.0388,-2.65906 0.17906,1.85208 c 0.23119,2.39125 0.47495,3.12317 0.97609,2.93087 0.28555,-0.10958 0.36842,0.01 0.30683,0.44118 -0.0967,0.67748 -0.73555,0.89803 -1.21436,0.41922 z m -14.74502,-1.27287 c 0,-0.76647 0.11185,-1.29119 0.26459,-1.24125 0.40793,0.1334 0.46139,1.57697 0.0778,2.10115 -0.29679,0.40557 -0.34239,0.29107 -0.34239,-0.8599 z m -33.989657,0.54171 c -0.150641,-0.28148 -0.265833,-1.26374 -0.255985,-2.18282 0.01894,-1.76766 0.317812,-1.58417 0.640744,0.39339 0.09036,0.55335 0.33632,1.07211 0.546571,1.15279 0.210254,0.0807 0.382278,0.37208 0.382278,0.64755 0,0.66976 -0.953561,0.66184 -1.313608,-0.0109 z m -31.27838,-0.66191 c -0.06907,-0.59164 -0.0059,-0.91742 0.166985,-0.86063 0.375245,0.12329 0.518268,1.23854 0.19969,1.55712 -0.16432,0.16432 -0.295204,-0.0843 -0.366675,-0.69649 z m 8.890488,-0.56655 c -0.09766,-0.52057 -0.04909,-1.4433 0.107924,-2.05052 l 0.285485,-1.10404 -0.122036,1.45521 c -0.126053,1.50314 0.135583,2.31834 0.643348,2.00453 0.183062,-0.11314 0.232642,-0.0275 0.133566,0.23068 -0.282294,0.73565 -0.865698,0.43742 -1.048287,-0.53586 z m 26.222699,0.25488 c -0.273743,-0.27374 -0.389588,-0.84752 -0.358307,-1.7747 l 0.04622,-1.37016 0.102772,1.19063 c 0.12155,1.40817 0.414639,1.80491 0.984192,1.33222 0.344771,-0.28614 0.408088,-0.25595 0.408088,0.19457 0,0.69785 -0.670348,0.94006 -1.182968,0.42744 z m 7.82345,-0.40622 c -0.15976,-0.45827 -0.27973,-1.38101 -0.26661,-2.05052 0.0218,-1.11376 0.042,-1.14978 0.23712,-0.42354 0.11729,0.43657 0.28742,1.12118 0.37805,1.52136 0.11525,0.50881 0.33092,0.7276 0.71723,0.7276 0.39505,0 0.50668,0.11924 0.39184,0.41852 -0.0883,0.23018 -0.1606,0.46831 -0.1606,0.52916 0,0.0609 -0.22648,0.11066 -0.50328,0.11066 -0.32663,0 -0.60525,-0.29248 -0.79375,-0.83324 z m 47.9799,0.18436 c -0.34824,-0.53149 -0.37896,-0.90243 -0.16982,-2.05052 l 0.25534,-1.40165 0.0355,1.19063 c 0.0421,1.4115 0.34538,1.98973 0.92672,1.76665 0.50146,-0.19243 0.57238,0.35997 0.10608,0.82627 -0.45956,0.45956 -0.67635,0.39729 -1.1538,-0.33138 z m -107.812796,-0.026 c -0.195342,-0.23537 -0.399507,-1.16207 -0.453701,-2.05934 -0.07201,-1.19224 -0.0238,-1.52455 0.179113,-1.2345 0.152706,0.21828 0.281294,0.75406 0.285751,1.19062 0.01004,0.98351 0.367268,1.5865 0.786419,1.32745 0.217531,-0.13444 0.28879,-0.007 0.228019,0.4084 -0.111392,0.76107 -0.564239,0.92327 -1.025601,0.36737 z m 122.133946,-0.16781 c -0.17972,-0.8249 -0.22069,-1.49227 -0.15943,-2.59687 0.0606,-1.09353 0.1703,-0.8589 0.40185,0.8599 0.13833,1.02679 0.26674,1.25677 0.70167,1.25677 0.73895,0 0.53613,0.90029 -0.2274,1.00936 -0.42971,0.0614 -0.61838,-0.0779 -0.71669,-0.52916 z m -54.12027,-1.00937 c -0.0146,-1.37302 -0.31455,-1.97878 -0.98136,-1.98206 -0.25838,-0.001 -0.51022,-0.21067 -0.55965,-0.46533 -0.11927,-0.61446 0.3571,-0.58521 1.29019,0.0792 l 0.76149,0.54223 0.77555,-0.57339 c 0.8853,-0.65453 1.35503,-0.50526 1.35503,0.43058 0,0.73729 -0.0754,0.7685 -0.78531,0.32513 -0.64644,-0.40371 -0.7698,-0.27324 -1.36162,1.44 l -0.48163,1.39426 -0.0127,-1.19063 z m -62.745127,-0.19843 c -0.0616,-0.61847 -0.01581,-1.12448 0.101738,-1.12448 0.385158,0 0.51657,0.76177 0.260941,1.51262 -0.243125,0.71413 -0.254061,0.70243 -0.362679,-0.38814 z m 14.937399,0.57126 c -0.08884,-0.23151 0.03593,-0.835 0.277272,-1.34109 0.465966,-0.97714 0.384945,-1.41299 -0.262662,-1.41299 -0.218281,0 -0.32329,-0.11906 -0.233353,-0.26458 0.258007,-0.41747 1.190442,-0.30834 1.370302,0.16037 0.08969,0.23372 -0.08883,0.94343 -0.3967,1.57712 -0.709755,1.46089 -0.391497,1.67498 1.182342,0.79534 1.413221,-0.78986 1.609445,-0.83585 1.136869,-0.26643 -0.869898,1.04817 -2.781054,1.51584 -3.07407,0.75226 z m 53.807788,-0.38194 c -0.26201,-1.31458 -0.92728,-2.21408 -1.36737,-1.84883 -0.25369,0.21054 -0.38658,0.16816 -0.51401,-0.16392 -0.30258,-0.78852 0.23686,-0.90276 1.17929,-0.24977 l 0.91515,0.6341 0.58186,-0.53763 c 0.74573,-0.68904 1.40508,-0.44632 1.39411,0.51321 -0.008,0.66837 -0.0407,0.69341 -0.3599,0.27289 -0.66928,-0.88167 -1.16304,-0.55756 -1.41078,0.92604 l -0.23196,1.38906 z m 27.59744,0.15385 c 0,-0.35695 0.14412,-0.96531 0.32026,-1.3519 0.27121,-0.59524 0.25158,-0.75311 -0.12818,-1.03079 -0.50837,-0.37173 -0.3379,-0.67246 0.38119,-0.67246 0.60521,0 0.65422,1.20931 0.0798,1.9688 -0.40808,0.53953 -0.52895,1.47304 -0.19002,1.46759 0.10914,-0.002 0.71661,-0.29941 1.34992,-0.66146 1.33938,-0.76568 1.55661,-0.81461 1.083,-0.24395 -0.46688,0.56256 -1.69191,1.17318 -2.35363,1.17318 -0.3993,0 -0.54231,-0.17115 -0.54231,-0.64901 z m -93.133346,-0.70971 c -0.290791,-0.84614 -0.538321,-1.15482 -0.926042,-1.15482 -0.619538,0 -1.089524,-0.60381 -0.74115,-0.95218 0.143247,-0.14325 0.600383,0.0264 1.13586,0.42142 l 0.896134,0.66114 0.597886,-0.56168 c 0.758916,-0.71297 1.421265,-0.48321 1.410147,0.48914 -0.0076,0.66837 -0.04067,0.69341 -0.359898,0.27289 -0.633167,-0.83409 -1.14486,-0.55488 -1.389002,0.75794 l -0.22706,1.22097 z m 83.608346,-0.17003 c -0.32374,-1.01915 -0.5019,-1.23859 -0.9668,-1.19084 -0.31346,0.0322 -0.63569,-0.11283 -0.71605,-0.32226 -0.24819,-0.64676 0.32553,-0.72284 1.13019,-0.14988 0.91357,0.65052 1.17474,0.67468 1.61099,0.14902 0.55857,-0.67303 1.32292,-0.49647 1.32292,0.3056 0,0.68844 -0.0107,0.69279 -0.53542,0.21791 -0.67574,-0.61154 -1.00038,-0.31651 -1.25626,1.14172 l -0.19269,1.0981 z m -73.878181,0.58739 c -0.259446,-0.25945 0.108,-1.1753 0.471537,-1.1753 0.472551,0 0.682944,0.39017 0.486474,0.90216 -0.159247,0.41499 -0.670419,0.56073 -0.958011,0.27314 z m -2.717591,-1.06374 c -0.425802,-0.33952 -0.690272,-0.70123 -0.587711,-0.80379 0.102562,-0.10256 0.409265,0.0151 0.681563,0.26157 0.471157,0.42639 0.511152,0.40926 0.827471,-0.3544 0.182812,-0.44134 0.437003,-0.80244 0.564869,-0.80244 0.312722,0 0.303615,0.0479 -0.239761,1.26158 l -0.472244,1.0548 z m 65.352092,0 c -0.4258,-0.33952 -0.69027,-0.70123 -0.58771,-0.80379 0.10256,-0.10256 0.40927,0.0151 0.68157,0.26157 0.47115,0.42639 0.51115,0.40926 0.82747,-0.3544 0.18281,-0.44134 0.437,-0.80244 0.56487,-0.80244 0.31272,0 0.30361,0.0479 -0.23976,1.26158 l -0.47225,1.0548 z m 45.19854,-0.48639 c 0,-0.65417 0.0992,-1.12808 0.22049,-1.05313 0.28194,0.17425 0.27921,1.45491 -0.004,1.90139 -0.13068,0.20598 -0.21643,-0.1301 -0.21643,-0.84826 z m -93.221539,-0.0221 c -0.341776,-0.3638 -0.488617,-0.66146 -0.326319,-0.66146 0.162298,0 0.368673,0.11907 0.458611,0.26459 0.268769,0.43487 0.558633,0.30384 0.8779,-0.39688 0.165759,-0.3638 0.437574,-0.66146 0.604034,-0.66146 0.204663,0 0.218313,0.10708 0.04215,0.33073 -0.143272,0.1819 -0.338714,0.65815 -0.434311,1.05834 -0.214582,0.89825 -0.429419,0.90988 -1.222068,0.0661 z m 22.665974,0.22049 c -0.326462,-0.32647 -0.179928,-1.14653 0.204868,-1.14653 0.50091,0 0.71815,0.37884 0.51734,0.90217 -0.17125,0.44624 -0.43207,0.5345 -0.722208,0.24436 z m 28.575015,0 c -0.24478,-0.24477 -0.22131,-1.08754 0.0347,-1.24575 0.42973,-0.26559 0.90418,0.29682 0.72545,0.85994 -0.1814,0.57156 -0.44208,0.70386 -0.76013,0.38581 z m 31.44132,-1.19686 c 1.51236,-0.79468 3.03521,-2.09905 4.08252,-3.49683 0.49845,-0.66524 0.94512,-1.17068 0.99261,-1.12319 0.0475,0.0475 -0.063,0.51017 -0.24544,1.02818 -0.35859,1.01793 -2.80129,3.05454 -4.52988,3.77679 -1.36284,0.56943 -1.53425,0.46369 -0.29981,-0.18495 z"
         style="fill:#000000;stroke-width:0.26458335" />
    </g>
  </g>
</svg>
